<?xml version="1.0" encoding="utf-8"?>
<!-- Generator: Adobe Illustrator 24.2.0, SVG Export Plug-In . SVG Version: 6.00 Build 0)  -->
<svg version="1.1" id="Capa_1" xmlns="http://www.w3.org/2000/svg" xmlns:xlink="http://www.w3.org/1999/xlink" x="0px" y="0px"
	 viewBox="0 0 375 375" style="enable-background:new 0 0 375 375;" xml:space="preserve">
<style type="text/css">
	.st0{fill:#E6A93B;}
	.st1{fill:#E3743B;}
	.st2{fill:#5D2421;}
	.st3{fill:#E2911B;}
</style>
<g id="surface1">
	<path class="st0" d="M243.9,219.6c1.1,0,2.2-0.5,2.6-1.6l47.3-75.9l47.3,75.9c0.9,1.6,3,2,4.4,1.1c1.6-0.9,2-3,1.1-4.4l-50.1-80.2
		c-0.6-0.9-1.6-1.6-2.6-1.6c-1.1,0-2.2,0.6-2.6,1.6l-49.9,80.2c-0.9,1.6-0.5,3.4,1.1,4.4C242.6,219.5,243.3,219.6,243.9,219.6"/>
	<path class="st0" d="M134.3,219.6c-1.1,0-2.2-0.5-2.6-1.6l-47.3-75.7l-47.3,75.9c-0.9,1.6-3,2-4.4,1.1c-1.6-0.9-2-3-1.1-4.4
		l49.9-80.2c0.6-0.9,1.6-1.6,2.6-1.6c1.1,0,2.2,0.6,2.6,1.6l49.9,80.2c0.9,1.6,0.5,3.4-1.1,4.4C135.3,219.5,134.9,219.6,134.3,219.6
		"/>
	<path class="st0" d="M287.9,125.6c0,3.3,2.6,5.9,5.9,5.9s5.9-2.6,5.9-5.9c0-3.3-2.6-5.9-5.9-5.9
		C290.5,119.7,287.9,122.3,287.9,125.6z M278.6,125.6c0-8.4,6.8-15.4,15.2-15.4c8.4,0,15.2,6.8,15.2,15.4c0,8.4-6.8,15.4-15.2,15.4
		C285.4,141,278.6,134.1,278.6,125.6"/>
	<path class="st1" d="M301.1,95.9c2-0.9,4.7,0.8,5.8,2.2c1.9,2.2,2.8,5.1,2.8,7.9c0,5.4-4.7,11.2-9.6,13.2
		c-10,3.9-19.3-6.8-24.9-13.7c-4-5.1-7.9-10.4-12.6-15.1c-4.7-4.5-9.3-8.9-14.6-12.8c-9.8-6.8-20.7-11.2-32.7-11.8
		c-1.9-0.2-3.7-0.3-5.3,0.9c-2,1.6-2.2,4.7-0.6,6.5c1.4,1.6,3.3,1.6,5.1,1.9c3,0.5,5.9,1.1,8.7,1.9c12,3.7,22.1,12.1,30.8,20.8
		c8.2,8.2,14.3,18.7,23.6,25.8c8.6,6.7,21,8.1,29.5,0.5c6.8-6.1,10.6-15.9,6.5-24.6c-1.7-3.7-5-7.2-9.2-7.8c-0.9-0.2-1.9-0.2-2.8,0
		c-0.2,0-0.8,0-1.2,0.3C298.3,93.1,299.1,96.3,301.1,95.9C301.1,95.9,300.2,96,301.1,95.9"/>
	<path class="st0" d="M301.1,95.9C301.1,95.9,300.2,96,301.1,95.9"/>
	<g>
		<g>
			<path class="st0" d="M349.6,213.6c-10.9,19.7-31.7,33.1-55.8,33.1c-24.1,0-44.9-13.4-55.8-33.1H349.6"/>
		</g>
	</g>
	<path class="st0" d="M293.8,110.3h0.2v9.3h-0.2c-3.3,0-5.9,2.6-5.9,5.9c0,3.3,2.6,5.9,5.9,5.9l0,0l0.2,0.2v9.2h-0.2
		c-8.4,0-15.2-6.8-15.2-15.4C278.6,117.2,285.4,110.3,293.8,110.3"/>
	<path class="st0" d="M84.3,119.7c-3.3,0-5.9,2.6-5.9,5.9c0,3.3,2.6,5.9,5.9,5.9c3.3,0,5.9-2.6,5.9-5.9
		C90.2,122.3,87.6,119.7,84.3,119.7z M84.3,141c-8.4,0-15.2-6.8-15.2-15.4c0-8.4,6.8-15.4,15.2-15.4s15.2,6.8,15.2,15.4
		C99.6,134.1,92.7,141,84.3,141"/>
	<path class="st1" d="M77,95.9c-2-0.9-4.7,0.8-5.8,2.2c-1.9,2.2-2.8,5.1-2.8,7.9c0,5.4,4.7,11.2,9.6,13.2
		c10.1,3.9,19.3-6.8,24.9-13.7c4-5.1,7.9-10.4,12.6-15.1c4.7-4.5,9.3-8.9,14.6-12.8c9.8-6.8,20.7-11.2,32.7-11.8
		c1.9-0.2,3.7-0.3,5.3,0.9c2,1.6,2.2,4.7,0.6,6.5c-1.4,1.6-3.3,1.6-5.1,1.9c-3,0.5-5.9,1.1-8.7,1.9c-12,3.7-22.1,12.1-30.8,20.8
		c-8.2,8.2-14.3,18.7-23.6,25.8c-8.6,6.7-21,8.1-29.5,0.5c-6.8-6.1-10.6-15.9-6.5-24.6c1.7-3.7,5-7.2,9.2-7.8c0.9-0.2,1.9-0.2,2.8,0
		c0.2,0,0.8,0,1.2,0.3C79.7,93.1,79.1,96.3,77,95.9C77,95.9,77.8,96,77,95.9"/>
	<path class="st0" d="M77,95.9C77,95.9,77.8,96,77,95.9"/>
	<path class="st2" d="M198.9,237.2h-23.3V82.5h23.3V237.2"/>
	<path class="st0" d="M187.9,50.8c-8.4,0-15.1,6.8-15.1,15.2s6.8,15.2,15.1,15.2c8.4,0,15.1-6.8,15.1-15.2S196.1,50.8,187.9,50.8z
		 M187.9,96.2c-16.5,0-30-13.5-30-30.2s13.5-30.2,30-30.2s30,13.5,30,30.2S204.4,96.2,187.9,96.2"/>
	<g>
		<g>
			<path class="st0" d="M200.7,4.6c-0.5-0.6-1.1-1.1-1.9-1.1h-22.1c-0.8,0-1.4,0.5-1.9,1.1c-0.5,0.6-0.5,1.4-0.2,2l11,22.1
				c0.3,0.8,1.1,1.2,1.9,1.2s1.6-0.5,1.9-1.2l11-22.1C201.1,6,201.1,5.2,200.7,4.6"/>
		</g>
	</g>
	<g>
		<g>
			<path class="st0" d="M28.5,213.6c10.9,19.7,31.7,33.1,55.8,33.1s44.9-13.4,55.8-33.1H28.5"/>
		</g>
	</g>
	<path class="st0" d="M84.3,110.3h-0.2v9.3h0.2c3.3,0,5.9,2.6,5.9,5.9c0,3.3-2.6,5.9-5.9,5.9l0,0l-0.2,0.2v9.2h0.2
		c8.4,0,15.2-6.8,15.2-15.4C99.6,117.2,92.7,110.3,84.3,110.3"/>
	<g>
		<g>
			<path class="st2" d="M186.3,267.2c-3.1-0.6-5.3-3.7-4.5-7c0.5-2.2,2.2-3.9,4.4-4.4c3.9-0.9,7.2,2,7.2,5.8c0,2.8-2,5.1-4.7,5.8v48
				l31.4-67.8l0,0c-11.5,0-20.8-9.3-20.8-20.8l0,0h-23.2l0,0l0,0c0,11.5-9.3,20.8-20.8,20.8l0,0l31.4,67.8v-48.2H186.3z"/>
		</g>
	</g>
	<g>
		<g>
			<path class="st3" d="M342.8,372.5H201.6c-1.2,0-2.5-0.5-3.4-1.6l-8.9-8.7l-8.9,8.7c-0.9,0.9-2.2,1.6-3.4,1.6H35.5
				c-2.8,0-5-2.2-5-5c0-2.8,2.2-5,5-5h139.3l10.9-10.7c2-2,5-2,7,0l10.9,10.7h139.3c2.8,0,5,2.2,5,5
				C347.8,370.3,345.6,372.5,342.8,372.5z"/>
		</g>
	</g>
	<path class="st3" d="M64.1,302.8l27.2-9.6c0,0,68.1,1.2,94.2,41.4v14.6C185.4,349.2,145.8,302.8,64.1,302.8z"/>
	<path class="st3" d="M57.9,311.5l14.9-5c0,0,69.4,0,109,41.4C181.8,348.2,129.7,314,57.9,311.5z"/>
	<path class="st3" d="M50.4,333.3l7.5-14.6c0,0,79.3,2.5,121.4,29.2C179.3,348.2,80.1,326.2,50.4,333.3z"/>
	<path class="st3" d="M45.5,345.8c0,0,44.6-14.6,133.9,7.5c0,0-91.7-9.6-136.4,0L45.5,345.8z"/>
	<path class="st3" d="M313.1,302.8l-27.2-9.6c0,0-68.1,1.2-94.2,41.4v14.6C191.6,349.2,231.3,302.8,313.1,302.8z"/>
	<path class="st3" d="M319.3,311.5l-14.9-5c0,0-69.4,0-109,41.4C195.4,348.2,247.5,314,319.3,311.5z"/>
	<path class="st3" d="M326.8,333.3l-7.5-14.6c0,0-79.3,2.5-121.4,29.2C197.9,348.2,297.1,326.2,326.8,333.3z"/>
	<path class="st3" d="M331.7,345.8c0,0-44.6-14.6-133.9,7.5c0,0,91.7-9.6,136.4,0L331.7,345.8z"/>
</g>
</svg>
